<?xml version='1.0' encoding='UTF-8'?>
<svg width="51.8mm" height="51.8mm" version="1.1" viewBox="0 0 51.8 51.8" xmlns="http://www.w3.org/2000/svg"><path d="M5.6,5.6H7V7H5.6zM7,5.6H8.4V7H7zM8.4,5.6H9.8V7H8.4zM9.8,5.6H11.2V7H9.8zM11.2,5.6H12.6V7H11.2zM12.6,5.6H14V7H12.6zM14,5.6H15.4V7H14zM18.2,5.6H19.6V7H18.2zM25.2,5.6H26.6V7H25.2zM29.4,5.6H30.8V7H29.4zM30.8,5.6H32.2V7H30.8zM32.2,5.6H33.6V7H32.2zM33.6,5.6H35V7H33.6zM36.4,5.6H37.8V7H36.4zM37.8,5.6H39.2V7H37.8zM39.2,5.6H40.6V7H39.2zM40.6,5.6H42V7H40.6zM42,5.6H43.4V7H42zM43.4,5.6H44.8V7H43.4zM44.8,5.6H46.2V7H44.8zM5.6,7H7V8.4H5.6zM14,7H15.4V8.4H14zM16.8,7H18.2V8.4H16.8zM18.2,7H19.6V8.4H18.2zM19.6,7H21V8.4H19.6zM23.8,7H25.2V8.4H23.8zM30.8,7H32.2V8.4H30.8zM32.2,7H33.6V8.4H32.2zM36.4,7H37.8V8.4H36.4zM44.8,7H46.2V8.4H44.8zM5.6,8.4H7V9.8H5.6zM8.4,8.4H9.8V9.8H8.4zM9.8,8.4H11.2V9.8H9.8zM11.2,8.4H12.6V9.8H11.2zM14,8.4H15.4V9.8H14zM18.2,8.4H19.6V9.8H18.2zM19.6,8.4H21V9.8H19.6zM22.4,8.4H23.8V9.8H22.4zM26.6,8.4H28V9.8H26.6zM30.8,8.4H32.2V9.8H30.8zM36.4,8.4H37.8V9.8H36.4zM39.2,8.4H40.6V9.8H39.2zM40.6,8.4H42V9.8H40.6zM42,8.4H43.4V9.8H42zM44.8,8.4H46.2V9.8H44.8zM5.6,9.8H7V11.2H5.6zM8.4,9.8H9.8V11.2H8.4zM9.8,9.8H11.2V11.2H9.8zM11.2,9.8H12.6V11.2H11.2zM14,9.8H15.4V11.2H14zM21,9.8H22.4V11.2H21zM23.8,9.8H25.2V11.2H23.8zM28,9.8H29.4V11.2H28zM30.8,9.8H32.2V11.2H30.8zM32.2,9.8H33.6V11.2H32.2zM33.6,9.8H35V11.2H33.6zM36.4,9.8H37.8V11.2H36.4zM39.2,9.8H40.6V11.2H39.2zM40.6,9.8H42V11.2H40.6zM42,9.8H43.4V11.2H42zM44.8,9.8H46.2V11.2H44.8zM5.6,11.2H7V12.6H5.6zM8.4,11.2H9.8V12.6H8.4zM9.8,11.2H11.2V12.6H9.8zM11.2,11.2H12.6V12.6H11.2zM14,11.2H15.4V12.6H14zM16.8,11.2H18.2V12.6H16.8zM19.6,11.2H21V12.6H19.6zM22.4,11.2H23.8V12.6H22.4zM23.8,11.2H25.2V12.6H23.8zM28,11.2H29.4V12.6H28zM29.4,11.2H30.8V12.6H29.4zM30.8,11.2H32.2V12.6H30.8zM32.2,11.2H33.6V12.6H32.2zM36.4,11.2H37.8V12.6H36.4zM39.2,11.2H40.6V12.6H39.2zM40.6,11.2H42V12.6H40.6zM42,11.2H43.4V12.6H42zM44.8,11.2H46.2V12.6H44.8zM5.6,12.6H7V14H5.6zM14,12.6H15.4V14H14zM19.6,12.6H21V14H19.6zM21,12.6H22.4V14H21zM25.2,12.6H26.6V14H25.2zM26.6,12.6H28V14H26.6zM28,12.6H29.4V14H28zM29.4,12.6H30.8V14H29.4zM32.2,12.6H33.6V14H32.2zM33.6,12.6H35V14H33.6zM36.4,12.6H37.8V14H36.4zM44.8,12.6H46.2V14H44.8zM5.6,14H7V15.4H5.6zM7,14H8.4V15.4H7zM8.4,14H9.8V15.4H8.4zM9.8,14H11.2V15.4H9.8zM11.2,14H12.6V15.4H11.2zM12.6,14H14V15.4H12.6zM14,14H15.4V15.4H14zM16.8,14H18.2V15.4H16.8zM19.6,14H21V15.4H19.6zM22.4,14H23.8V15.4H22.4zM25.2,14H26.6V15.4H25.2zM28,14H29.4V15.4H28zM30.8,14H32.2V15.4H30.8zM33.6,14H35V15.4H33.6zM36.4,14H37.8V15.4H36.4zM37.8,14H39.2V15.4H37.8zM39.2,14H40.6V15.4H39.2zM40.6,14H42V15.4H40.6zM42,14H43.4V15.4H42zM43.4,14H44.8V15.4H43.4zM44.8,14H46.2V15.4H44.8zM22.4,15.4H23.8V16.8H22.4zM26.6,15.4H28V16.8H26.6zM29.4,15.4H30.8V16.8H29.4zM30.8,15.4H32.2V16.8H30.8zM33.6,15.4H35V16.8H33.6zM5.6,16.8H7V18.2H5.6zM8.4,16.8H9.8V18.2H8.4zM11.2,16.8H12.6V18.2H11.2zM14,16.8H15.4V18.2H14zM22.4,16.8H23.8V18.2H22.4zM28,16.8H29.4V18.2H28zM29.4,16.8H30.8V18.2H29.4zM32.2,16.8H33.6V18.2H32.2zM33.6,16.8H35V18.2H33.6zM39.2,16.8H40.6V18.2H39.2zM43.4,16.8H44.8V18.2H43.4zM5.6,18.2H7V19.6H5.6zM7,18.2H8.4V19.6H7zM8.4,18.2H9.8V19.6H8.4zM11.2,18.2H12.6V19.6H11.2zM18.2,18.2H19.6V19.6H18.2zM19.6,18.2H21V19.6H19.6zM21,18.2H22.4V19.6H21zM22.4,18.2H23.8V19.6H22.4zM23.8,18.2H25.2V19.6H23.8zM26.6,18.2H28V19.6H26.6zM28,18.2H29.4V19.6H28zM33.6,18.2H35V19.6H33.6zM36.4,18.2H37.8V19.6H36.4zM40.6,18.2H42V19.6H40.6zM44.8,18.2H46.2V19.6H44.8zM5.6,19.6H7V21H5.6zM11.2,19.6H12.6V21H11.2zM12.6,19.6H14V21H12.6zM14,19.6H15.4V21H14zM15.4,19.6H16.8V21H15.4zM16.8,19.6H18.2V21H16.8zM19.6,19.6H21V21H19.6zM21,19.6H22.4V21H21zM22.4,19.6H23.8V21H22.4zM25.2,19.6H26.6V21H25.2zM26.6,19.6H28V21H26.6zM28,19.6H29.4V21H28zM29.4,19.6H30.8V21H29.4zM33.6,19.6H35V21H33.6zM35,19.6H36.4V21H35zM36.4,19.6H37.8V21H36.4zM42,19.6H43.4V21H42zM43.4,19.6H44.8V21H43.4zM44.8,19.6H46.2V21H44.8zM7,21H8.4V22.4H7zM9.8,21H11.2V22.4H9.8zM15.4,21H16.8V22.4H15.4zM22.4,21H23.8V22.4H22.4zM23.8,21H25.2V22.4H23.8zM25.2,21H26.6V22.4H25.2zM28,21H29.4V22.4H28zM29.4,21H30.8V22.4H29.4zM32.2,21H33.6V22.4H32.2zM35,21H36.4V22.4H35zM39.2,21H40.6V22.4H39.2zM43.4,21H44.8V22.4H43.4zM7,22.4H8.4V23.8H7zM9.8,22.4H11.2V23.8H9.8zM12.6,22.4H14V23.8H12.6zM14,22.4H15.4V23.8H14zM18.2,22.4H19.6V23.8H18.2zM19.6,22.4H21V23.8H19.6zM25.2,22.4H26.6V23.8H25.2zM26.6,22.4H28V23.8H26.6zM28,22.4H29.4V23.8H28zM29.4,22.4H30.8V23.8H29.4zM30.8,22.4H32.2V23.8H30.8zM35,22.4H36.4V23.8H35zM36.4,22.4H37.8V23.8H36.4zM40.6,22.4H42V23.8H40.6zM43.4,22.4H44.8V23.8H43.4zM44.8,22.4H46.2V23.8H44.8zM9.8,23.8H11.2V25.2H9.8zM11.2,23.8H12.6V25.2H11.2zM18.2,23.8H19.6V25.2H18.2zM19.6,23.8H21V25.2H19.6zM21,23.8H22.4V25.2H21zM22.4,23.8H23.8V25.2H22.4zM25.2,23.8H26.6V25.2H25.2zM26.6,23.8H28V25.2H26.6zM33.6,23.8H35V25.2H33.6zM35,23.8H36.4V25.2H35zM36.4,23.8H37.8V25.2H36.4zM40.6,23.8H42V25.2H40.6zM44.8,23.8H46.2V25.2H44.8zM5.6,25.2H7V26.6H5.6zM7,25.2H8.4V26.6H7zM8.4,25.2H9.8V26.6H8.4zM9.8,25.2H11.2V26.6H9.8zM14,25.2H15.4V26.6H14zM15.4,25.2H16.8V26.6H15.4zM16.8,25.2H18.2V26.6H16.8zM18.2,25.2H19.6V26.6H18.2zM21,25.2H22.4V26.6H21zM22.4,25.2H23.8V26.6H22.4zM23.8,25.2H25.2V26.6H23.8zM29.4,25.2H30.8V26.6H29.4zM36.4,25.2H37.8V26.6H36.4zM37.8,25.2H39.2V26.6H37.8zM39.2,25.2H40.6V26.6H39.2zM40.6,25.2H42V26.6H40.6zM43.4,25.2H44.8V26.6H43.4zM44.8,25.2H46.2V26.6H44.8zM5.6,26.6H7V28H5.6zM9.8,26.6H11.2V28H9.8zM11.2,26.6H12.6V28H11.2zM12.6,26.6H14V28H12.6zM18.2,26.6H19.6V28H18.2zM22.4,26.6H23.8V28H22.4zM28,26.6H29.4V28H28zM29.4,26.6H30.8V28H29.4zM30.8,26.6H32.2V28H30.8zM32.2,26.6H33.6V28H32.2zM33.6,26.6H35V28H33.6zM36.4,26.6H37.8V28H36.4zM37.8,26.6H39.2V28H37.8zM40.6,26.6H42V28H40.6zM43.4,26.6H44.8V28H43.4zM7,28H8.4V29.4H7zM9.8,28H11.2V29.4H9.8zM12.6,28H14V29.4H12.6zM14,28H15.4V29.4H14zM26.6,28H28V29.4H26.6zM28,28H29.4V29.4H28zM29.4,28H30.8V29.4H29.4zM33.6,28H35V29.4H33.6zM35,28H36.4V29.4H35zM36.4,28H37.8V29.4H36.4zM40.6,28H42V29.4H40.6zM43.4,28H44.8V29.4H43.4zM44.8,28H46.2V29.4H44.8zM8.4,29.4H9.8V30.8H8.4zM9.8,29.4H11.2V30.8H9.8zM11.2,29.4H12.6V30.8H11.2zM12.6,29.4H14V30.8H12.6zM15.4,29.4H16.8V30.8H15.4zM18.2,29.4H19.6V30.8H18.2zM21,29.4H22.4V30.8H21zM22.4,29.4H23.8V30.8H22.4zM23.8,29.4H25.2V30.8H23.8zM29.4,29.4H30.8V30.8H29.4zM30.8,29.4H32.2V30.8H30.8zM33.6,29.4H35V30.8H33.6zM35,29.4H36.4V30.8H35zM36.4,29.4H37.8V30.8H36.4zM40.6,29.4H42V30.8H40.6zM42,29.4H43.4V30.8H42zM44.8,29.4H46.2V30.8H44.8zM5.6,30.8H7V32.2H5.6zM14,30.8H15.4V32.2H14zM15.4,30.8H16.8V32.2H15.4zM16.8,30.8H18.2V32.2H16.8zM19.6,30.8H21V32.2H19.6zM22.4,30.8H23.8V32.2H22.4zM25.2,30.8H26.6V32.2H25.2zM29.4,30.8H30.8V32.2H29.4zM30.8,30.8H32.2V32.2H30.8zM33.6,30.8H35V32.2H33.6zM35,30.8H36.4V32.2H35zM43.4,30.8H44.8V32.2H43.4zM44.8,30.8H46.2V32.2H44.8zM7,32.2H8.4V33.6H7zM8.4,32.2H9.8V33.6H8.4zM9.8,32.2H11.2V33.6H9.8zM16.8,32.2H18.2V33.6H16.8zM18.2,32.2H19.6V33.6H18.2zM19.6,32.2H21V33.6H19.6zM21,32.2H22.4V33.6H21zM22.4,32.2H23.8V33.6H22.4zM23.8,32.2H25.2V33.6H23.8zM25.2,32.2H26.6V33.6H25.2zM28,32.2H29.4V33.6H28zM29.4,32.2H30.8V33.6H29.4zM32.2,32.2H33.6V33.6H32.2zM33.6,32.2H35V33.6H33.6zM36.4,32.2H37.8V33.6H36.4zM39.2,32.2H40.6V33.6H39.2zM40.6,32.2H42V33.6H40.6zM43.4,32.2H44.8V33.6H43.4zM5.6,33.6H7V35H5.6zM9.8,33.6H11.2V35H9.8zM14,33.6H15.4V35H14zM22.4,33.6H23.8V35H22.4zM25.2,33.6H26.6V35H25.2zM29.4,33.6H30.8V35H29.4zM33.6,33.6H35V35H33.6zM35,33.6H36.4V35H35zM36.4,33.6H37.8V35H36.4zM37.8,33.6H39.2V35H37.8zM39.2,33.6H40.6V35H39.2zM16.8,35H18.2V36.4H16.8zM18.2,35H19.6V36.4H18.2zM22.4,35H23.8V36.4H22.4zM25.2,35H26.6V36.4H25.2zM28,35H29.4V36.4H28zM29.4,35H30.8V36.4H29.4zM32.2,35H33.6V36.4H32.2zM33.6,35H35V36.4H33.6zM39.2,35H40.6V36.4H39.2zM42,35H43.4V36.4H42zM43.4,35H44.8V36.4H43.4zM44.8,35H46.2V36.4H44.8zM5.6,36.4H7V37.8H5.6zM7,36.4H8.4V37.8H7zM8.4,36.4H9.8V37.8H8.4zM9.8,36.4H11.2V37.8H9.8zM11.2,36.4H12.6V37.8H11.2zM12.6,36.4H14V37.8H12.6zM14,36.4H15.4V37.8H14zM18.2,36.4H19.6V37.8H18.2zM19.6,36.4H21V37.8H19.6zM23.8,36.4H25.2V37.8H23.8zM32.2,36.4H33.6V37.8H32.2zM33.6,36.4H35V37.8H33.6zM36.4,36.4H37.8V37.8H36.4zM39.2,36.4H40.6V37.8H39.2zM40.6,36.4H42V37.8H40.6zM43.4,36.4H44.8V37.8H43.4zM44.8,36.4H46.2V37.8H44.8zM5.6,37.8H7V39.2H5.6zM14,37.8H15.4V39.2H14zM18.2,37.8H19.6V39.2H18.2zM19.6,37.8H21V39.2H19.6zM26.6,37.8H28V39.2H26.6zM28,37.8H29.4V39.2H28zM29.4,37.8H30.8V39.2H29.4zM30.8,37.8H32.2V39.2H30.8zM33.6,37.8H35V39.2H33.6zM39.2,37.8H40.6V39.2H39.2zM40.6,37.8H42V39.2H40.6zM5.6,39.2H7V40.6H5.6zM8.4,39.2H9.8V40.6H8.4zM9.8,39.2H11.2V40.6H9.8zM11.2,39.2H12.6V40.6H11.2zM14,39.2H15.4V40.6H14zM16.8,39.2H18.2V40.6H16.8zM18.2,39.2H19.6V40.6H18.2zM19.6,39.2H21V40.6H19.6zM21,39.2H22.4V40.6H21zM22.4,39.2H23.8V40.6H22.4zM28,39.2H29.4V40.6H28zM29.4,39.2H30.8V40.6H29.4zM33.6,39.2H35V40.6H33.6zM35,39.2H36.4V40.6H35zM36.4,39.2H37.8V40.6H36.4zM37.8,39.2H39.2V40.6H37.8zM39.2,39.2H40.6V40.6H39.2zM44.8,39.2H46.2V40.6H44.8zM5.6,40.6H7V42H5.6zM8.4,40.6H9.8V42H8.4zM9.8,40.6H11.2V42H9.8zM11.2,40.6H12.6V42H11.2zM14,40.6H15.4V42H14zM18.2,40.6H19.6V42H18.2zM21,40.6H22.4V42H21zM28,40.6H29.4V42H28zM29.4,40.6H30.8V42H29.4zM30.8,40.6H32.2V42H30.8zM32.2,40.6H33.6V42H32.2zM37.8,40.6H39.2V42H37.8zM39.2,40.6H40.6V42H39.2zM42,40.6H43.4V42H42zM43.4,40.6H44.8V42H43.4zM44.8,40.6H46.2V42H44.8zM5.6,42H7V43.4H5.6zM8.4,42H9.8V43.4H8.4zM9.8,42H11.2V43.4H9.8zM11.2,42H12.6V43.4H11.2zM14,42H15.4V43.4H14zM16.8,42H18.2V43.4H16.8zM18.2,42H19.6V43.4H18.2zM19.6,42H21V43.4H19.6zM21,42H22.4V43.4H21zM22.4,42H23.8V43.4H22.4zM29.4,42H30.8V43.4H29.4zM32.2,42H33.6V43.4H32.2zM37.8,42H39.2V43.4H37.8zM39.2,42H40.6V43.4H39.2zM40.6,42H42V43.4H40.6zM44.8,42H46.2V43.4H44.8zM5.6,43.4H7V44.8H5.6zM14,43.4H15.4V44.8H14zM18.2,43.4H19.6V44.8H18.2zM21,43.4H22.4V44.8H21zM25.2,43.4H26.6V44.8H25.2zM26.6,43.4H28V44.8H26.6zM29.4,43.4H30.8V44.8H29.4zM32.2,43.4H33.6V44.8H32.2zM33.6,43.4H35V44.8H33.6zM35,43.4H36.4V44.8H35zM43.4,43.4H44.8V44.8H43.4zM5.6,44.8H7V46.2H5.6zM7,44.8H8.4V46.2H7zM8.4,44.8H9.8V46.2H8.4zM9.8,44.8H11.2V46.2H9.8zM11.2,44.8H12.6V46.2H11.2zM12.6,44.8H14V46.2H12.6zM14,44.8H15.4V46.2H14zM16.8,44.8H18.2V46.2H16.8zM19.6,44.8H21V46.2H19.6zM22.4,44.8H23.8V46.2H22.4zM23.8,44.8H25.2V46.2H23.8zM26.6,44.8H28V46.2H26.6zM28,44.8H29.4V46.2H28zM29.4,44.8H30.8V46.2H29.4zM32.2,44.8H33.6V46.2H32.2zM33.6,44.8H35V46.2H33.6zM35,44.8H36.4V46.2H35zM36.4,44.8H37.8V46.2H36.4zM39.2,44.8H40.6V46.2H39.2zM43.4,44.8H44.8V46.2H43.4zM44.8,44.8H46.2V46.2H44.8z" id="qr-path" fill="#000000" fill-opacity="1" fill-rule="nonzero" stroke="none"/></svg>